<svg width="40" height="40" viewBox="0 0 40 40" fill="none" xmlns="http://www.w3.org/2000/svg">
<g id="internet-access">
<g id="internet">
<path id="Vector" d="M20.0001 38.1594C30.0292 38.1594 38.1594 30.0292 38.1594 20.0001C38.1594 9.97092 30.0292 1.8407 20.0001 1.8407C9.97092 1.8407 1.8407 9.97092 1.8407 20.0001C1.8407 30.0292 9.97092 38.1594 20.0001 38.1594Z" fill="#6D8ACA"/>
<path id="Vector_2" d="M20 0.999939C9.5233 0.999939 1 9.52335 1 20C1 30.4766 9.5233 39 20 39C30.4767 39 39 30.4767 39 20C39 9.52335 30.4767 0.999939 20 0.999939ZM17.069 2.93047C15.5267 4.25082 14.0503 5.89453 12.8641 7.64427C12.3299 8.43233 11.8496 9.24606 11.4231 10.0806H5.81165C8.41244 6.37167 12.4283 3.72492 17.069 2.93047ZM4.76916 11.7619H10.6492C9.668 14.1485 9.11274 16.6749 9.01343 19.248H2.69863C2.81453 16.5479 3.55058 14.0058 4.76916 11.7619ZM2.70636 20.9292H9.01276C9.10949 23.5427 9.65926 26.046 10.654 28.4153H4.86801C3.61817 26.1768 2.85006 23.6346 2.70636 20.9292ZM5.93729 30.0964H11.447C11.8672 30.8977 12.3401 31.6824 12.8672 32.4489C14.2658 34.4824 15.7691 35.995 17.0387 37.0644C12.485 36.2765 8.53517 33.7045 5.93729 30.0964ZM19.1594 36.5963C17.2815 35.2211 15.0709 33.0278 13.3772 30.0964H19.1594V36.5963ZM19.1594 28.4152H12.5047C11.5034 26.2449 10.8118 23.7413 10.6957 20.9291H19.1593L19.1594 28.4152ZM19.1594 19.248H10.6957C10.8004 16.6342 11.395 14.1295 12.4704 11.7619H19.1594V19.248ZM19.1594 10.0806H13.3281C13.6146 9.57603 13.9233 9.07815 14.2557 8.58768C15.9865 6.03441 17.8837 4.36245 19.1594 3.41501V10.0806ZM37.3014 19.248H30.9865C30.8871 16.6749 30.3319 14.1485 29.3507 11.7619H35.2307C36.4493 14.0058 37.1855 16.5479 37.3014 19.248ZM34.1884 10.0806H28.577C28.1505 9.24606 27.6701 8.43233 27.136 7.64427C25.9499 5.89441 24.4729 4.25115 22.9305 2.93036C27.5714 3.72481 31.5873 6.37155 34.1884 10.0806ZM20.8406 3.4149C22.1163 4.36234 24.0135 6.03429 25.7443 8.58756C26.0767 9.07804 26.3854 9.57592 26.6719 10.0805H20.8406V3.4149ZM20.8406 11.7619H27.5296C28.605 14.1295 29.1996 16.6342 29.3043 19.248H20.8406V11.7619ZM20.8406 20.9292H29.3042C29.1882 23.7414 28.4965 26.245 27.4952 28.4153H20.8405L20.8406 20.9292ZM20.8406 30.0964H26.6228C24.9291 33.0277 22.7185 35.2211 20.8406 36.5963V30.0964ZM22.9615 37.0644C24.2311 35.9951 25.7342 34.4822 27.1327 32.449C27.6598 31.6825 28.1327 30.8978 28.5529 30.0966H34.0626C31.4648 33.7044 27.5151 36.2764 22.9615 37.0644ZM35.132 28.4152H29.3459C30.3406 26.0458 30.8904 23.5427 30.9871 20.9291H37.2935C37.1498 23.6346 36.3818 26.1768 35.132 28.4152Z" fill="#4467AE"/>
</g>
<g id="ban">
<circle id="Ellipse 3" cx="12.5" cy="12.5" r="12.5" transform="matrix(1 0 0 -1 15 40)" fill="#FFF5F8"/>
<path id="Vector_3" d="M32.9297 35.1416L19.8584 22.0703C18.7646 23.5986 18.125 25.4736 18.125 27.5C18.125 32.6758 22.3242 36.875 27.5 36.875C29.5264 36.875 31.4014 36.2354 32.9297 35.1416ZM35.1416 32.9297C36.2354 31.4014 36.875 29.5264 36.875 27.5C36.875 22.3242 32.6758 18.125 27.5 18.125C25.4736 18.125 23.5986 18.7646 22.0703 19.8584L35.1416 32.9297ZM15 27.5C15 24.1848 16.317 21.0054 18.6612 18.6612C21.0054 16.317 24.1848 15 27.5 15C30.8152 15 33.9946 16.317 36.3388 18.6612C38.683 21.0054 40 24.1848 40 27.5C40 30.8152 38.683 33.9946 36.3388 36.3388C33.9946 38.683 30.8152 40 27.5 40C24.1848 40 21.0054 38.683 18.6612 36.3388C16.317 33.9946 15 30.8152 15 27.5Z" fill="#F1416C"/>
</g>
</g>
</svg>
