<svg width="40" height="40" viewBox="0 0 40 40" fill="none" xmlns="http://www.w3.org/2000/svg">
<g id="malicious-domain-access" clip-path="url(#clip0_676_737)">
<g id="Group">
<rect id="Rectangle 5" x="2.5" y="4.4444" width="35" height="31.1111" rx="10" fill="#6D8ACA"/>
<path id="Vector" d="M33.6111 4.4444C34.6425 4.4444 35.6317 4.85412 36.361 5.58343C37.0903 6.31273 37.5 7.30189 37.5 8.33329V31.6666C37.5 32.698 37.0903 33.6872 36.361 34.4165C35.6317 35.1458 34.6425 35.5555 33.6111 35.5555H6.38889C5.35749 35.5555 4.36834 35.1458 3.63903 34.4165C2.90972 33.6872 2.5 32.698 2.5 31.6666V8.33329C2.5 7.30189 2.90972 6.31273 3.63903 5.58343C4.36834 4.85412 5.35749 4.4444 6.38889 4.4444H33.6111ZM33.6111 20H6.38889V31.6666H33.6111V20ZM33.6111 8.33329H6.38889V16.1111H33.6111V8.33329ZM10.2778 10.2777C10.7935 10.2777 11.2881 10.4826 11.6527 10.8472C12.0174 11.2119 12.2222 11.7065 12.2222 12.2222C12.2222 12.7379 12.0174 13.2325 11.6527 13.5971C11.2881 13.9618 10.7935 14.1666 10.2778 14.1666C9.76208 14.1666 9.2675 13.9618 8.90285 13.5971C8.53819 13.2325 8.33333 12.7379 8.33333 12.2222C8.33333 11.7065 8.53819 11.2119 8.90285 10.8472C9.2675 10.4826 9.76208 10.2777 10.2778 10.2777ZM16.1111 10.2777C16.6268 10.2777 17.1214 10.4826 17.486 10.8472C17.8507 11.2119 18.0556 11.7065 18.0556 12.2222C18.0556 12.7379 17.8507 13.2325 17.486 13.5971C17.1214 13.9618 16.6268 14.1666 16.1111 14.1666C15.5954 14.1666 15.1008 13.9618 14.7362 13.5971C14.3715 13.2325 14.1667 12.7379 14.1667 12.2222C14.1667 11.7065 14.3715 11.2119 14.7362 10.8472C15.1008 10.4826 15.5954 10.2777 16.1111 10.2777ZM21.9444 10.2777C22.4601 10.2777 22.9547 10.4826 23.3194 10.8472C23.684 11.2119 23.8889 11.7065 23.8889 12.2222C23.8889 12.7379 23.684 13.2325 23.3194 13.5971C22.9547 13.9618 22.4601 14.1666 21.9444 14.1666C21.4287 14.1666 20.9342 13.9618 20.5695 13.5971C20.2049 13.2325 20 12.7379 20 12.2222C20 11.7065 20.2049 11.2119 20.5695 10.8472C20.9342 10.4826 21.4287 10.2777 21.9444 10.2777Z" fill="#4467AE"/>
</g>
<g id="warning">
<path id="Polygon 1" d="M25.7687 20.0833C26.5385 18.75 28.463 18.75 29.2328 20.0833L36.594 32.8333C37.3638 34.1666 36.4015 35.8333 34.8619 35.8333H20.1395C18.5999 35.8333 17.6377 34.1666 18.4075 32.8333L25.7687 20.0833Z" fill="#FFF5F8"/>
<g id="typcn:warning-outline">
<path id="Vector_2" d="M27.5 20.7406C28.0844 20.7406 28.6657 21.1093 29.1084 21.8468L35.2667 32.1114C36.1532 33.5854 35.4688 34.7916 33.75 34.7916H21.25C19.5313 34.7916 18.8469 33.5843 19.7334 32.1114L25.8917 21.8468C26.3344 21.1093 26.9157 20.7406 27.5 20.7406ZM27.5 18.6572C26.15 18.6572 24.9146 19.4281 24.1053 20.7729L17.9469 31.0395C17.1282 32.4031 17.0386 33.8572 17.7021 35.0291C18.3657 36.201 19.6594 36.8749 21.25 36.8749H33.75C35.3407 36.8749 36.6355 36.202 37.298 35.0301C37.9605 33.8583 37.8719 32.4041 37.0532 31.0406L30.8948 20.776C30.0855 19.4281 28.85 18.6572 27.5 18.6572Z" fill="#F1416C"/>
<path id="Vector_3" d="M27.5 33.0208C28.2479 33.0208 28.8542 32.4145 28.8542 31.6666C28.8542 30.9187 28.2479 30.3124 27.5 30.3124C26.7522 30.3124 26.1459 30.9187 26.1459 31.6666C26.1459 32.4145 26.7522 33.0208 27.5 33.0208Z" fill="#F1416C"/>
<path id="Vector_4" d="M29.0625 25.4166C29.0625 24.552 28.3636 23.8541 27.5 23.8541C27.2443 23.8542 26.9925 23.917 26.7667 24.0372C26.5409 24.1573 26.3481 24.3311 26.2053 24.5432C26.0624 24.7553 25.9738 24.9993 25.9473 25.2537C25.9207 25.508 25.9571 25.765 26.0532 26.002C26.6302 27.4354 27.5 29.5833 27.5 29.5833L28.949 26.002C29.0198 25.8218 29.0625 25.6239 29.0625 25.4166Z" fill="#F1416C"/>
</g>
</g>
</g>
<defs>
<clipPath id="clip0_676_737">
<rect width="40" height="40" fill="white"/>
</clipPath>
</defs>
</svg>
