<svg width="800px" height="800px" class="icon" viewBox="0 0 40 40" fill="none" xmlns="http://www.w3.org/2000/svg">
<g id="printer-frame" clip-path="url(#clip0_692_34)">
<g id="Group">
<path id="Vector" d="M13.6323 39.5898L39.0848 24.7157C39.2753 24.5919 39.3526 24.4005 39.3513 24.1129C39.0132 13.3708 34.6345 6.57014 27.1708 3.27805C26.9614 3.18277 26.5974 3.25214 26.3212 3.39571L0.942993 18.2119L13.6323 39.5898Z" fill="#6D8ACA"/>
<path id="Vector_2" d="M12.7911 39.6421L1.9089 33.3591C1.10146 32.8928 0.604004 32.0314 0.604004 31.0988V18.8779C0.604004 18.2843 1.21562 17.88 1.75874 18.1197C9.22236 21.4118 13.6011 28.2124 13.9392 38.9545C13.9581 39.553 13.31 39.9415 12.7911 39.6421Z" fill="#4762AF"/>
<path id="Vector_3" d="M19.7279 26.3416L31.0245 19.8197C31.3068 19.6568 31.46 19.3306 31.3942 19.011C30.0849 12.6604 25.8027 8.92001 19.8363 7.18176L7.27209 14.5062C13.084 16.1992 17.1883 19.7925 18.6012 25.8472C18.7185 26.3486 19.2818 26.5993 19.7279 26.3416Z" fill="#4762AF"/>
<path id="Vector_4" d="M39.2832 28.7028L31.8938 24.4395L21.0533 30.6962L28.4428 34.9639L39.2832 28.7028Z" fill="#E4E9F5"/>
<path id="Vector_5" d="M20.3675 31.5357C20.292 31.5357 20.2178 31.4962 20.1774 31.4259C20.1164 31.321 20.1524 31.1866 20.2578 31.126L32.944 23.8016C33.0485 23.741 33.1833 23.7766 33.2439 23.8819C33.3049 23.9869 33.2689 24.1212 33.1636 24.1818L20.4773 31.5058C20.4426 31.526 20.4049 31.5357 20.3675 31.5357Z" fill="#4762AF"/>
<path id="Vector_6" d="M37.7915 23.7406C38.0416 23.6966 38.1842 23.3191 38.11 22.8973C38.0358 22.4755 37.773 22.1693 37.5229 22.2133C37.2729 22.2572 37.1303 22.6348 37.2045 23.0566C37.2787 23.4783 37.5415 23.7846 37.7915 23.7406Z" fill="#4762AF"/>
<path id="Vector_7" d="M36.0354 24.5926C36.2855 24.5487 36.4281 24.1711 36.3539 23.7493C36.2797 23.3276 36.0169 23.0213 35.7668 23.0653C35.5168 23.1093 35.3742 23.4868 35.4484 23.9086C35.5226 24.3303 35.7854 24.6366 36.0354 24.5926Z" fill="#4762AF"/>
<path id="Vector_8" d="M10.7415 15.8511L23.383 8.55867C22.5532 8.15341 21.7497 7.80611 20.9888 7.55014L8.48779 14.897C9.26406 15.203 10.032 15.5029 10.7415 15.8511Z" fill="#5D7BC1"/>
<path id="Vector_9" d="M20.746 10.0778L10.7397 15.8515L9.90552 15.4827V6.48629L20.746 0.229645V10.0778Z" fill="#E4E9F5"/>
</g>
</g>
<defs>
<clipPath id="clip0_692_34">
<rect width="40" height="40" fill="white" transform="translate(0 0.00985718)"/>
</clipPath>
</defs>
</svg>
