<svg xmlns="http://www.w3.org/2000/svg" xmlns:xlink="http://www.w3.org/1999/xlink" width="1000" zoomAndPan="magnify" viewBox="0 0 750 749.999995" height="1000" preserveAspectRatio="xMidYMid meet" version="1.0"><path fill="#24b9cc" d="M 750 375 C 750 381.136719 749.847656 387.269531 749.546875 393.402344 C 749.246094 399.53125 748.796875 405.648438 748.195312 411.757812 C 747.59375 417.863281 746.839844 423.953125 745.941406 430.023438 C 745.039062 436.09375 743.992188 442.140625 742.792969 448.160156 C 741.597656 454.179688 740.253906 460.164062 738.761719 466.117188 C 737.269531 472.070312 735.632812 477.984375 733.851562 483.855469 C 732.070312 489.730469 730.144531 495.554688 728.078125 501.332031 C 726.011719 507.113281 723.804688 512.835938 721.453125 518.507812 C 719.105469 524.175781 716.621094 529.785156 713.996094 535.332031 C 711.371094 540.882812 708.613281 546.359375 705.71875 551.773438 C 702.828125 557.1875 699.804688 562.523438 696.648438 567.789062 C 693.492188 573.050781 690.210938 578.234375 686.800781 583.339844 C 683.390625 588.441406 679.859375 593.457031 676.203125 598.386719 C 672.546875 603.316406 668.773438 608.152344 664.878906 612.898438 C 660.984375 617.640625 656.976562 622.289062 652.855469 626.835938 C 648.734375 631.382812 644.503906 635.824219 640.164062 640.164062 C 635.824219 644.503906 631.382812 648.734375 626.835938 652.855469 C 622.289062 656.976562 617.640625 660.984375 612.898438 664.878906 C 608.152344 668.773438 603.316406 672.546875 598.386719 676.203125 C 593.457031 679.859375 588.441406 683.390625 583.339844 686.800781 C 578.234375 690.210938 573.050781 693.492188 567.789062 696.648438 C 562.523438 699.804688 557.1875 702.828125 551.773438 705.71875 C 546.359375 708.613281 540.882812 711.371094 535.332031 713.996094 C 529.785156 716.621094 524.175781 719.105469 518.507812 721.453125 C 512.835938 723.804688 507.113281 726.011719 501.332031 728.078125 C 495.554688 730.148438 489.730469 732.070312 483.855469 733.851562 C 477.984375 735.632812 472.070312 737.269531 466.117188 738.761719 C 460.164062 740.253906 454.179688 741.597656 448.160156 742.792969 C 442.140625 743.992188 436.09375 745.039062 430.023438 745.941406 C 423.953125 746.839844 417.863281 747.59375 411.757812 748.195312 C 405.648438 748.796875 399.53125 749.246094 393.398438 749.546875 C 387.269531 749.847656 381.136719 750 375 750 C 368.863281 750 362.730469 749.847656 356.597656 749.546875 C 350.46875 749.246094 344.351562 748.796875 338.242188 748.195312 C 332.136719 747.59375 326.046875 746.839844 319.976562 745.941406 C 313.90625 745.039062 307.859375 743.992188 301.839844 742.792969 C 295.820312 741.597656 289.835938 740.253906 283.882812 738.761719 C 277.929688 737.269531 272.015625 735.632812 266.144531 733.851562 C 260.269531 732.070312 254.445312 730.144531 248.667969 728.078125 C 242.886719 726.011719 237.164062 723.804688 231.492188 721.453125 C 225.824219 719.105469 220.214844 716.621094 214.667969 713.996094 C 209.117188 711.371094 203.640625 708.613281 198.226562 705.71875 C 192.8125 702.828125 187.476562 699.804688 182.210938 696.648438 C 176.949219 693.492188 171.765625 690.210938 166.660156 686.800781 C 161.558594 683.390625 156.542969 679.859375 151.613281 676.203125 C 146.683594 672.546875 141.847656 668.773438 137.101562 664.878906 C 132.359375 660.984375 127.710938 656.976562 123.164062 652.855469 C 118.617188 648.734375 114.175781 644.503906 109.835938 640.164062 C 105.496094 635.824219 101.265625 631.382812 97.144531 626.835938 C 93.023438 622.289062 89.015625 617.640625 85.121094 612.898438 C 81.226562 608.152344 77.453125 603.316406 73.796875 598.386719 C 70.140625 593.457031 66.609375 588.441406 63.199219 583.339844 C 59.789062 578.234375 56.507812 573.050781 53.351562 567.789062 C 50.195312 562.523438 47.171875 557.1875 44.28125 551.773438 C 41.386719 546.359375 38.628906 540.882812 36.003906 535.332031 C 33.378906 529.785156 30.894531 524.175781 28.546875 518.507812 C 26.195312 512.835938 23.988281 507.113281 21.921875 501.332031 C 19.851562 495.554688 17.929688 489.730469 16.148438 483.855469 C 14.367188 477.984375 12.730469 472.070312 11.238281 466.117188 C 9.746094 460.164062 8.402344 454.179688 7.207031 448.160156 C 6.007812 442.140625 4.960938 436.09375 4.058594 430.023438 C 3.160156 423.953125 2.40625 417.863281 1.804688 411.757812 C 1.203125 405.648438 0.753906 399.53125 0.453125 393.402344 C 0.152344 387.269531 0 381.136719 0 375 C 0 368.863281 0.152344 362.730469 0.453125 356.597656 C 0.753906 350.46875 1.203125 344.351562 1.804688 338.242188 C 2.40625 332.136719 3.160156 326.046875 4.058594 319.976562 C 4.960938 313.90625 6.007812 307.859375 7.207031 301.839844 C 8.402344 295.820312 9.746094 289.835938 11.238281 283.882812 C 12.730469 277.929688 14.367188 272.015625 16.148438 266.144531 C 17.929688 260.269531 19.851562 254.445312 21.921875 248.667969 C 23.988281 242.886719 26.195312 237.164062 28.546875 231.492188 C 30.894531 225.824219 33.378906 220.214844 36.003906 214.667969 C 38.628906 209.117188 41.386719 203.640625 44.28125 198.226562 C 47.171875 192.8125 50.195312 187.476562 53.351562 182.210938 C 56.507812 176.949219 59.789062 171.765625 63.199219 166.660156 C 66.609375 161.558594 70.140625 156.542969 73.796875 151.613281 C 77.453125 146.683594 81.226562 141.847656 85.121094 137.101562 C 89.015625 132.359375 93.023438 127.710938 97.144531 123.164062 C 101.265625 118.617188 105.496094 114.175781 109.835938 109.835938 C 114.175781 105.496094 118.617188 101.265625 123.164062 97.144531 C 127.710938 93.023438 132.359375 89.015625 137.101562 85.121094 C 141.847656 81.226562 146.683594 77.453125 151.613281 73.796875 C 156.542969 70.140625 161.558594 66.609375 166.660156 63.199219 C 171.765625 59.789062 176.949219 56.507812 182.210938 53.351562 C 187.476562 50.195312 192.8125 47.171875 198.226562 44.28125 C 203.640625 41.386719 209.117188 38.628906 214.667969 36.003906 C 220.214844 33.378906 225.824219 30.894531 231.492188 28.546875 C 237.164062 26.195312 242.886719 23.988281 248.667969 21.921875 C 254.445312 19.851562 260.269531 17.929688 266.144531 16.148438 C 272.015625 14.367188 277.929688 12.730469 283.882812 11.238281 C 289.835938 9.746094 295.820312 8.402344 301.839844 7.207031 C 307.859375 6.007812 313.90625 4.960938 319.976562 4.058594 C 326.046875 3.160156 332.136719 2.40625 338.242188 1.804688 C 344.351562 1.203125 350.46875 0.753906 356.597656 0.453125 C 362.730469 0.152344 368.863281 0 375 0 C 381.136719 0 387.269531 0.152344 393.398438 0.453125 C 399.53125 0.753906 405.648438 1.203125 411.757812 1.804688 C 417.863281 2.40625 423.953125 3.160156 430.023438 4.058594 C 436.09375 4.960938 442.140625 6.007812 448.160156 7.207031 C 454.179688 8.402344 460.164062 9.746094 466.117188 11.238281 C 472.070312 12.730469 477.984375 14.367188 483.855469 16.148438 C 489.730469 17.929688 495.554688 19.851562 501.332031 21.921875 C 507.113281 23.988281 512.835938 26.195312 518.507812 28.546875 C 524.175781 30.894531 529.785156 33.378906 535.332031 36.003906 C 540.882812 38.628906 546.359375 41.386719 551.773438 44.28125 C 557.1875 47.171875 562.523438 50.195312 567.789062 53.351562 C 573.050781 56.507812 578.234375 59.789062 583.339844 63.199219 C 588.441406 66.609375 593.457031 70.140625 598.386719 73.796875 C 603.316406 77.453125 608.152344 81.226562 612.898438 85.121094 C 617.640625 89.015625 622.289062 93.023438 626.835938 97.144531 C 631.382812 101.265625 635.824219 105.496094 640.164062 109.835938 C 644.503906 114.175781 648.734375 118.617188 652.855469 123.164062 C 656.976562 127.710938 660.984375 132.359375 664.878906 137.101562 C 668.773438 141.847656 672.546875 146.683594 676.203125 151.613281 C 679.859375 156.542969 683.390625 161.558594 686.800781 166.660156 C 690.210938 171.765625 693.492188 176.949219 696.648438 182.210938 C 699.804688 187.476562 702.828125 192.8125 705.71875 198.226562 C 708.613281 203.640625 711.371094 209.117188 713.996094 214.667969 C 716.621094 220.214844 719.105469 225.824219 721.453125 231.492188 C 723.804688 237.164062 726.011719 242.886719 728.078125 248.667969 C 730.144531 254.445312 732.070312 260.269531 733.851562 266.144531 C 735.632812 272.015625 737.269531 277.929688 738.761719 283.882812 C 740.253906 289.835938 741.597656 295.820312 742.792969 301.839844 C 743.992188 307.859375 745.039062 313.90625 745.941406 319.976562 C 746.839844 326.046875 747.59375 332.136719 748.195312 338.242188 C 748.796875 344.351562 749.246094 350.46875 749.546875 356.597656 C 749.847656 362.730469 750 368.863281 750 375 Z M 750 375 " fill-opacity="1" fill-rule="nonzero"/><path fill="#fffffe" d="M 511.230469 427.296875 C 497.167969 418.066406 480.46875 412.648438 462.449219 412.648438 C 413.527344 412.648438 373.828125 452.492188 373.828125 501.269531 C 373.828125 525.585938 383.789062 547.707031 399.757812 563.820312 C 415.871094 579.933594 437.988281 589.894531 462.597656 589.894531 C 511.523438 589.894531 551.222656 550.046875 551.222656 501.269531 C 551.21875 470.363281 535.253906 443.113281 511.230469 427.296875 Z M 526.609375 516.210938 L 517.96875 516.210938 C 516.648438 521.042969 514.746094 525.585938 512.253906 529.980469 L 518.410156 536.132812 C 520.460938 538.183594 520.460938 541.40625 518.410156 543.308594 L 504.492188 557.226562 C 503.464844 558.253906 502.296875 558.691406 500.832031 558.691406 C 499.511719 558.691406 498.195312 558.105469 497.167969 557.226562 L 491.015625 551.074219 C 486.769531 553.5625 482.078125 555.46875 477.394531 556.785156 L 477.394531 565.429688 C 477.394531 568.210938 475.050781 570.554688 472.265625 570.554688 L 452.636719 570.554688 C 449.851562 570.554688 447.507812 568.210938 447.507812 565.429688 L 447.507812 556.785156 C 442.675781 555.46875 438.132812 553.5625 433.886719 551.074219 L 427.734375 557.226562 C 425.683594 559.277344 422.460938 559.277344 420.554688 557.226562 L 406.640625 543.308594 C 405.761719 542.285156 405.175781 541.113281 405.175781 539.648438 C 405.175781 538.183594 405.761719 537.011719 406.640625 535.984375 L 412.792969 529.832031 C 410.300781 525.585938 408.398438 520.898438 407.082031 516.210938 L 398.4375 516.210938 C 395.652344 516.210938 393.308594 513.867188 393.308594 511.082031 L 393.308594 491.453125 C 393.308594 488.671875 395.652344 486.328125 398.4375 486.328125 L 407.078125 486.328125 C 408.398438 481.496094 410.300781 476.953125 412.792969 472.707031 L 406.640625 466.550781 C 404.589844 464.503906 404.589844 461.277344 406.640625 459.375 L 420.554688 445.460938 C 422.605469 443.410156 425.828125 443.410156 427.734375 445.460938 L 433.886719 451.613281 C 438.132812 449.121094 442.820312 447.21875 447.507812 445.898438 L 447.507812 437.257812 C 447.507812 434.472656 449.851562 432.128906 452.636719 432.128906 L 472.265625 432.128906 C 475.046875 432.128906 477.390625 434.472656 477.390625 437.257812 L 477.390625 445.898438 C 482.226562 447.21875 486.765625 449.121094 491.015625 451.613281 L 497.167969 445.460938 C 498.046875 444.578125 499.363281 443.996094 500.828125 443.996094 C 502.148438 443.996094 503.464844 444.578125 504.492188 445.460938 L 518.40625 459.375 C 520.457031 461.425781 520.457031 464.648438 518.40625 466.550781 L 512.253906 472.707031 C 514.746094 476.953125 516.648438 481.640625 517.96875 486.328125 L 526.609375 486.328125 C 529.394531 486.328125 531.738281 488.671875 531.738281 491.453125 L 531.738281 511.230469 C 531.738281 514.011719 529.539062 516.210938 526.609375 516.210938 Z M 526.609375 516.210938 " fill-opacity="1" fill-rule="nonzero"/><path fill="#fffffe" d="M 513.867188 496.582031 C 511.375 496.582031 509.324219 494.824219 508.886719 492.480469 C 507.714844 486.183594 505.222656 480.175781 501.5625 474.902344 C 500.242188 472.851562 500.390625 470.214844 502.148438 468.457031 L 507.566406 463.039062 L 500.828125 456.445312 L 495.410156 461.867188 C 493.652344 463.625 491.015625 463.917969 488.964844 462.453125 C 483.542969 458.789062 477.683594 456.296875 471.386719 455.128906 C 468.894531 454.6875 467.285156 452.492188 467.285156 450.148438 L 467.285156 442.53125 L 457.910156 442.53125 L 457.910156 450.148438 C 457.910156 452.636719 456.152344 454.6875 453.808594 455.128906 C 447.511719 456.296875 441.503906 458.789062 436.230469 462.453125 C 434.179688 463.769531 431.542969 463.621094 429.785156 461.867188 L 424.363281 456.445312 L 417.480469 462.890625 L 422.898438 468.3125 C 424.660156 470.070312 424.949219 472.851562 423.484375 474.757812 C 419.824219 480.175781 417.332031 486.035156 416.160156 492.335938 C 415.722656 494.824219 413.527344 496.433594 411.179688 496.433594 L 403.5625 496.433594 L 403.5625 505.808594 L 411.179688 505.808594 C 413.671875 505.808594 415.722656 507.566406 416.160156 509.910156 C 417.332031 516.210938 419.824219 522.214844 423.484375 527.488281 C 424.804688 529.539062 424.65625 532.175781 422.898438 533.933594 L 417.480469 539.355469 L 424.21875 546.09375 L 429.640625 540.671875 C 431.398438 538.914062 434.035156 538.621094 436.082031 540.085938 C 441.503906 543.75 447.363281 546.238281 453.660156 547.410156 C 456.152344 547.851562 457.761719 550.046875 457.761719 552.390625 L 457.761719 560.007812 L 467.136719 560.007812 L 467.136719 552.390625 C 467.136719 549.902344 468.894531 547.851562 471.238281 547.410156 C 477.539062 546.238281 483.542969 543.75 488.816406 540.085938 C 490.867188 538.769531 493.503906 538.914062 495.261719 540.671875 L 500.683594 546.09375 L 507.421875 539.355469 L 502 533.933594 C 500.242188 532.175781 499.949219 529.539062 501.414062 527.488281 C 505.078125 522.070312 507.566406 516.210938 508.738281 509.910156 C 509.179688 507.421875 511.375 505.808594 513.71875 505.808594 L 521.335938 505.808594 L 521.335938 496.582031 Z M 462.597656 534.816406 C 444.140625 534.816406 429.199219 519.871094 429.199219 501.417969 C 429.199219 482.960938 444.285156 468.019531 462.597656 468.019531 C 481.054688 468.019531 495.996094 483.105469 495.996094 501.417969 C 495.996094 519.726562 480.90625 534.816406 462.597656 534.816406 Z M 462.597656 534.816406 " fill-opacity="1" fill-rule="nonzero"/><path fill="#fffffe" d="M 485.742188 501.269531 C 485.742188 514.015625 475.339844 524.5625 462.449219 524.5625 C 449.5625 524.5625 439.160156 514.160156 439.160156 501.269531 C 439.160156 488.378906 449.5625 477.980469 462.449219 477.980469 C 475.339844 478.125 485.742188 488.523438 485.742188 501.269531 Z M 485.742188 501.269531 " fill-opacity="1" fill-rule="nonzero"/><path fill="#fffffe" d="M 460.398438 233.058594 C 446.921875 233.058594 435.9375 222.070312 435.9375 208.59375 L 435.9375 159.960938 L 232.910156 159.960938 C 214.160156 159.960938 198.777344 175.195312 198.777344 194.09375 L 198.777344 528.371094 C 198.777344 547.117188 214.011719 562.5 232.910156 562.5 L 384.8125 562.5 C 371.628906 545.652344 363.722656 524.414062 363.722656 501.414062 C 363.722656 446.921875 408.105469 402.539062 462.597656 402.539062 C 479.445312 402.539062 495.261719 406.785156 509.035156 414.109375 L 509.035156 233.058594 Z M 231.296875 195.410156 C 231.296875 192.628906 233.640625 190.285156 236.425781 190.285156 L 400.339844 190.285156 C 403.125 190.285156 405.46875 192.628906 405.46875 195.410156 L 405.46875 227.929688 C 405.46875 230.710938 403.125 233.054688 400.339844 233.054688 L 236.425781 233.054688 C 233.640625 233.054688 231.296875 230.710938 231.296875 227.929688 Z M 341.746094 529.835938 C 341.746094 532.617188 339.402344 534.960938 336.621094 534.960938 L 236.425781 534.960938 C 233.640625 534.960938 231.296875 532.617188 231.296875 529.835938 L 231.296875 416.601562 C 231.296875 413.820312 233.640625 411.476562 236.425781 411.476562 L 336.621094 411.476562 C 339.402344 411.476562 341.746094 413.820312 341.746094 416.601562 Z M 471.386719 383.9375 L 236.425781 383.9375 C 233.640625 383.9375 231.296875 381.589844 231.296875 378.808594 C 231.296875 376.027344 233.640625 373.683594 236.425781 373.683594 L 471.53125 373.683594 C 474.316406 373.683594 476.660156 376.027344 476.660156 378.808594 C 476.511719 381.738281 474.316406 383.9375 471.386719 383.9375 Z M 471.386719 346.289062 L 236.425781 346.289062 C 233.640625 346.289062 231.296875 343.945312 231.296875 341.160156 C 231.296875 338.378906 233.640625 336.035156 236.425781 336.035156 L 471.53125 336.035156 C 474.316406 336.035156 476.660156 338.378906 476.660156 341.160156 C 476.660156 343.945312 474.316406 346.289062 471.386719 346.289062 Z M 471.386719 308.496094 L 236.425781 308.496094 C 233.640625 308.496094 231.296875 306.152344 231.296875 303.371094 C 231.296875 300.585938 233.640625 298.242188 236.425781 298.242188 L 471.53125 298.242188 C 474.316406 298.242188 476.660156 300.585938 476.660156 303.371094 C 476.511719 306.300781 474.316406 308.496094 471.386719 308.496094 Z M 471.386719 270.847656 L 236.425781 270.847656 C 233.640625 270.847656 231.296875 268.503906 231.296875 265.722656 C 231.296875 262.941406 233.640625 260.59375 236.425781 260.59375 L 471.53125 260.59375 C 474.316406 260.59375 476.660156 262.941406 476.660156 265.722656 C 476.511719 268.507812 474.316406 270.847656 471.386719 270.847656 Z M 471.386719 270.847656 " fill-opacity="1" fill-rule="nonzero"/><path fill="#fffffe" d="M 501.707031 222.804688 L 460.253906 222.804688 C 452.492188 222.804688 446.042969 216.503906 446.042969 208.59375 L 446.042969 167.140625 Z M 501.707031 222.804688 " fill-opacity="1" fill-rule="nonzero"/><path fill="#fffffe" d="M 241.550781 200.539062 L 395.214844 200.539062 L 395.214844 222.804688 L 241.550781 222.804688 Z M 241.550781 200.539062 " fill-opacity="1" fill-rule="nonzero"/><path fill="#fffffe" d="M 241.550781 421.726562 L 331.640625 421.726562 L 331.640625 524.707031 L 241.550781 524.707031 Z M 241.550781 421.726562 " fill-opacity="1" fill-rule="nonzero"/></svg>