<svg xmlns="http://www.w3.org/2000/svg" xmlns:xlink="http://www.w3.org/1999/xlink" width="1000" zoomAndPan="magnify" viewBox="0 0 750 749.999995" height="1000" preserveAspectRatio="xMidYMid meet" version="1.0"><defs><clipPath id="095da0aa22"><path d="M 0 0 L 749.945312 0 L 749.945312 749.945312 L 0 749.945312 Z M 0 0 " clip-rule="nonzero"/></clipPath></defs><path fill="#fa3435" d="M 478.257812 374.972656 C 478.257812 432.023438 432.011719 478.257812 374.972656 478.257812 C 317.933594 478.257812 271.6875 432.023438 271.6875 374.972656 C 271.6875 317.933594 317.933594 271.695312 374.972656 271.695312 C 432.011719 271.695312 478.257812 317.933594 478.257812 374.972656 " fill-opacity="1" fill-rule="nonzero"/><path fill="#fa3435" d="M 478.257812 374.972656 C 478.257812 432.023438 432.011719 478.257812 374.972656 478.257812 C 317.933594 478.257812 271.6875 432.023438 271.6875 374.972656 C 271.6875 317.933594 317.933594 271.695312 374.972656 271.695312 C 432.011719 271.695312 478.257812 317.933594 478.257812 374.972656 " fill-opacity="1" fill-rule="nonzero"/><path fill="#fa3435" d="M 374.972656 534.398438 C 287.070312 534.398438 215.554688 462.882812 215.554688 374.972656 C 215.554688 287.070312 287.070312 215.554688 374.972656 215.554688 C 462.871094 215.554688 534.386719 287.070312 534.386719 374.972656 C 534.386719 462.882812 462.871094 534.398438 374.972656 534.398438 Z M 374.972656 154.933594 C 253.640625 154.933594 154.925781 253.648438 154.925781 374.972656 C 154.925781 496.304688 253.640625 595.019531 374.972656 595.019531 C 496.304688 595.019531 595.011719 496.304688 595.011719 374.972656 C 595.011719 253.648438 496.304688 154.933594 374.972656 154.933594 " fill-opacity="1" fill-rule="nonzero"/><path fill="#fa3435" d="M 374.972656 534.398438 C 287.070312 534.398438 215.554688 462.882812 215.554688 374.972656 C 215.554688 287.070312 287.070312 215.554688 374.972656 215.554688 C 462.871094 215.554688 534.386719 287.070312 534.386719 374.972656 C 534.386719 462.882812 462.871094 534.398438 374.972656 534.398438 Z M 374.972656 154.933594 C 253.640625 154.933594 154.925781 253.648438 154.925781 374.972656 C 154.925781 496.304688 253.640625 595.019531 374.972656 595.019531 C 496.304688 595.019531 595.011719 496.304688 595.011719 374.972656 C 595.011719 253.648438 496.304688 154.933594 374.972656 154.933594 " fill-opacity="1" fill-rule="nonzero"/><path fill="#fa3435" d="M 374.972656 650.417969 C 223.09375 650.417969 99.527344 526.859375 99.527344 374.972656 C 99.527344 223.09375 223.09375 99.535156 374.972656 99.535156 C 526.847656 99.535156 650.417969 223.09375 650.417969 374.972656 C 650.417969 526.859375 526.847656 650.417969 374.972656 650.417969 Z M 374.972656 69.605469 C 206.59375 69.605469 69.605469 206.59375 69.605469 374.972656 C 69.605469 543.351562 206.59375 680.339844 374.972656 680.339844 C 543.351562 680.339844 680.339844 543.351562 680.339844 374.972656 C 680.339844 206.59375 543.351562 69.605469 374.972656 69.605469 " fill-opacity="1" fill-rule="nonzero"/><g clip-path="url(#095da0aa22)"><path fill="#fa3435" d="M 374.972656 734.558594 C 176.703125 734.558594 15.386719 573.253906 15.386719 374.972656 C 15.386719 176.703125 176.703125 15.394531 374.972656 15.394531 C 573.242188 15.394531 734.558594 176.703125 734.558594 374.972656 C 734.558594 573.253906 573.242188 734.558594 374.972656 734.558594 Z M 374.972656 0.0117188 C 168.210938 0.0117188 0 168.210938 0 374.972656 C 0 581.730469 168.210938 749.945312 374.972656 749.945312 C 581.730469 749.945312 749.945312 581.730469 749.945312 374.972656 C 749.945312 168.210938 581.730469 0.0117188 374.972656 0.0117188 " fill-opacity="1" fill-rule="nonzero"/></g></svg>