<svg xmlns="http://www.w3.org/2000/svg" xmlns:xlink="http://www.w3.org/1999/xlink" width="1000" zoomAndPan="magnify" viewBox="0 0 750 749.999995" height="1000" preserveAspectRatio="xMidYMid meet" version="1.0"><path fill="#f2ca4b" d="M 750 375 C 750 381.136719 749.847656 387.269531 749.546875 393.402344 C 749.246094 399.53125 748.796875 405.648438 748.195312 411.757812 C 747.59375 417.863281 746.839844 423.953125 745.941406 430.023438 C 745.039062 436.09375 743.992188 442.140625 742.792969 448.160156 C 741.597656 454.179688 740.253906 460.164062 738.761719 466.117188 C 737.269531 472.070312 735.632812 477.984375 733.851562 483.855469 C 732.070312 489.730469 730.144531 495.554688 728.078125 501.332031 C 726.011719 507.113281 723.804688 512.835938 721.453125 518.507812 C 719.105469 524.175781 716.621094 529.785156 713.996094 535.332031 C 711.371094 540.882812 708.613281 546.359375 705.71875 551.773438 C 702.828125 557.1875 699.804688 562.523438 696.648438 567.789062 C 693.492188 573.050781 690.210938 578.234375 686.800781 583.339844 C 683.390625 588.441406 679.859375 593.457031 676.203125 598.386719 C 672.546875 603.316406 668.773438 608.152344 664.878906 612.898438 C 660.984375 617.640625 656.976562 622.289062 652.855469 626.835938 C 648.734375 631.382812 644.503906 635.824219 640.164062 640.164062 C 635.824219 644.503906 631.382812 648.734375 626.835938 652.855469 C 622.289062 656.976562 617.640625 660.984375 612.898438 664.878906 C 608.152344 668.773438 603.316406 672.546875 598.386719 676.203125 C 593.457031 679.859375 588.441406 683.390625 583.339844 686.800781 C 578.234375 690.210938 573.050781 693.492188 567.789062 696.648438 C 562.523438 699.804688 557.1875 702.828125 551.773438 705.71875 C 546.359375 708.613281 540.882812 711.371094 535.332031 713.996094 C 529.785156 716.621094 524.175781 719.105469 518.507812 721.453125 C 512.835938 723.804688 507.113281 726.011719 501.332031 728.078125 C 495.554688 730.148438 489.730469 732.070312 483.855469 733.851562 C 477.984375 735.632812 472.070312 737.269531 466.117188 738.761719 C 460.164062 740.253906 454.179688 741.597656 448.160156 742.792969 C 442.140625 743.992188 436.09375 745.039062 430.023438 745.941406 C 423.953125 746.839844 417.863281 747.59375 411.757812 748.195312 C 405.648438 748.796875 399.53125 749.246094 393.398438 749.546875 C 387.269531 749.847656 381.136719 750 375 750 C 368.863281 750 362.730469 749.847656 356.597656 749.546875 C 350.46875 749.246094 344.351562 748.796875 338.242188 748.195312 C 332.136719 747.59375 326.046875 746.839844 319.976562 745.941406 C 313.90625 745.039062 307.859375 743.992188 301.839844 742.792969 C 295.820312 741.597656 289.835938 740.253906 283.882812 738.761719 C 277.929688 737.269531 272.015625 735.632812 266.144531 733.851562 C 260.269531 732.070312 254.445312 730.144531 248.667969 728.078125 C 242.886719 726.011719 237.164062 723.804688 231.492188 721.453125 C 225.824219 719.105469 220.214844 716.621094 214.667969 713.996094 C 209.117188 711.371094 203.640625 708.613281 198.226562 705.71875 C 192.8125 702.828125 187.476562 699.804688 182.210938 696.648438 C 176.949219 693.492188 171.765625 690.210938 166.660156 686.800781 C 161.558594 683.390625 156.542969 679.859375 151.613281 676.203125 C 146.683594 672.546875 141.847656 668.773438 137.101562 664.878906 C 132.359375 660.984375 127.710938 656.976562 123.164062 652.855469 C 118.617188 648.734375 114.175781 644.503906 109.835938 640.164062 C 105.496094 635.824219 101.265625 631.382812 97.144531 626.835938 C 93.023438 622.289062 89.015625 617.640625 85.121094 612.898438 C 81.226562 608.152344 77.453125 603.316406 73.796875 598.386719 C 70.140625 593.457031 66.609375 588.441406 63.199219 583.339844 C 59.789062 578.234375 56.507812 573.050781 53.351562 567.789062 C 50.195312 562.523438 47.171875 557.1875 44.28125 551.773438 C 41.386719 546.359375 38.628906 540.882812 36.003906 535.332031 C 33.378906 529.785156 30.894531 524.175781 28.546875 518.507812 C 26.195312 512.835938 23.988281 507.113281 21.921875 501.332031 C 19.851562 495.554688 17.929688 489.730469 16.148438 483.855469 C 14.367188 477.984375 12.730469 472.070312 11.238281 466.117188 C 9.746094 460.164062 8.402344 454.179688 7.207031 448.160156 C 6.007812 442.140625 4.960938 436.09375 4.058594 430.023438 C 3.160156 423.953125 2.40625 417.863281 1.804688 411.757812 C 1.203125 405.648438 0.753906 399.53125 0.453125 393.402344 C 0.152344 387.269531 0 381.136719 0 375 C 0 368.863281 0.152344 362.730469 0.453125 356.597656 C 0.753906 350.46875 1.203125 344.351562 1.804688 338.242188 C 2.40625 332.136719 3.160156 326.046875 4.058594 319.976562 C 4.960938 313.90625 6.007812 307.859375 7.207031 301.839844 C 8.402344 295.820312 9.746094 289.835938 11.238281 283.882812 C 12.730469 277.929688 14.367188 272.015625 16.148438 266.144531 C 17.929688 260.269531 19.851562 254.445312 21.921875 248.667969 C 23.988281 242.886719 26.195312 237.164062 28.546875 231.492188 C 30.894531 225.824219 33.378906 220.214844 36.003906 214.667969 C 38.628906 209.117188 41.386719 203.640625 44.28125 198.226562 C 47.171875 192.8125 50.195312 187.476562 53.351562 182.210938 C 56.507812 176.949219 59.789062 171.765625 63.199219 166.660156 C 66.609375 161.558594 70.140625 156.542969 73.796875 151.613281 C 77.453125 146.683594 81.226562 141.847656 85.121094 137.101562 C 89.015625 132.359375 93.023438 127.710938 97.144531 123.164062 C 101.265625 118.617188 105.496094 114.175781 109.835938 109.835938 C 114.175781 105.496094 118.617188 101.265625 123.164062 97.144531 C 127.710938 93.023438 132.359375 89.015625 137.101562 85.121094 C 141.847656 81.226562 146.683594 77.453125 151.613281 73.796875 C 156.542969 70.140625 161.558594 66.609375 166.660156 63.199219 C 171.765625 59.789062 176.949219 56.507812 182.210938 53.351562 C 187.476562 50.195312 192.8125 47.171875 198.226562 44.28125 C 203.640625 41.386719 209.117188 38.628906 214.667969 36.003906 C 220.214844 33.378906 225.824219 30.894531 231.492188 28.546875 C 237.164062 26.195312 242.886719 23.988281 248.667969 21.921875 C 254.445312 19.851562 260.269531 17.929688 266.144531 16.148438 C 272.015625 14.367188 277.929688 12.730469 283.882812 11.238281 C 289.835938 9.746094 295.820312 8.402344 301.839844 7.207031 C 307.859375 6.007812 313.90625 4.960938 319.976562 4.058594 C 326.046875 3.160156 332.136719 2.40625 338.242188 1.804688 C 344.351562 1.203125 350.46875 0.753906 356.597656 0.453125 C 362.730469 0.152344 368.863281 0 375 0 C 381.136719 0 387.269531 0.152344 393.398438 0.453125 C 399.53125 0.753906 405.648438 1.203125 411.757812 1.804688 C 417.863281 2.40625 423.953125 3.160156 430.023438 4.058594 C 436.09375 4.960938 442.140625 6.007812 448.160156 7.207031 C 454.179688 8.402344 460.164062 9.746094 466.117188 11.238281 C 472.070312 12.730469 477.984375 14.367188 483.855469 16.148438 C 489.730469 17.929688 495.554688 19.851562 501.332031 21.921875 C 507.113281 23.988281 512.835938 26.195312 518.507812 28.546875 C 524.175781 30.894531 529.785156 33.378906 535.332031 36.003906 C 540.882812 38.628906 546.359375 41.386719 551.773438 44.28125 C 557.1875 47.171875 562.523438 50.195312 567.789062 53.351562 C 573.050781 56.507812 578.234375 59.789062 583.339844 63.199219 C 588.441406 66.609375 593.457031 70.140625 598.386719 73.796875 C 603.316406 77.453125 608.152344 81.226562 612.898438 85.121094 C 617.640625 89.015625 622.289062 93.023438 626.835938 97.144531 C 631.382812 101.265625 635.824219 105.496094 640.164062 109.835938 C 644.503906 114.175781 648.734375 118.617188 652.855469 123.164062 C 656.976562 127.710938 660.984375 132.359375 664.878906 137.101562 C 668.773438 141.847656 672.546875 146.683594 676.203125 151.613281 C 679.859375 156.542969 683.390625 161.558594 686.800781 166.660156 C 690.210938 171.765625 693.492188 176.949219 696.648438 182.210938 C 699.804688 187.476562 702.828125 192.8125 705.71875 198.226562 C 708.613281 203.640625 711.371094 209.117188 713.996094 214.667969 C 716.621094 220.214844 719.105469 225.824219 721.453125 231.492188 C 723.804688 237.164062 726.011719 242.886719 728.078125 248.667969 C 730.144531 254.445312 732.070312 260.269531 733.851562 266.144531 C 735.632812 272.015625 737.269531 277.929688 738.761719 283.882812 C 740.253906 289.835938 741.597656 295.820312 742.792969 301.839844 C 743.992188 307.859375 745.039062 313.90625 745.941406 319.976562 C 746.839844 326.046875 747.59375 332.136719 748.195312 338.242188 C 748.796875 344.351562 749.246094 350.46875 749.546875 356.597656 C 749.847656 362.730469 750 368.863281 750 375 Z M 750 375 " fill-opacity="1" fill-rule="nonzero"/><path fill="#fffffe" d="M 542.429688 306.003906 L 556.785156 306.003906 L 556.785156 290.183594 C 556.785156 285.644531 555.175781 281.6875 551.953125 278.320312 L 438.425781 164.792969 C 435.058594 161.425781 431.394531 159.960938 426.5625 159.960938 L 241.257812 159.960938 C 214.597656 159.960938 193.066406 181.492188 193.066406 208.152344 L 193.066406 306.003906 L 207.421875 306.003906 C 213.71875 306.003906 218.992188 311.132812 218.992188 317.578125 L 218.992188 352.878906 C 218.992188 359.179688 213.867188 364.453125 207.421875 364.453125 L 193.066406 364.453125 L 193.066406 541.992188 C 193.066406 568.652344 214.597656 590.183594 241.257812 590.183594 L 508.59375 590.183594 C 535.253906 590.183594 556.785156 568.652344 556.785156 541.992188 L 556.785156 364.308594 L 542.429688 364.308594 C 536.132812 364.308594 530.859375 359.179688 530.859375 352.734375 L 530.859375 317.433594 C 531.003906 311.132812 536.132812 306.003906 542.429688 306.003906 Z M 438.71875 243.605469 C 438.71875 237.453125 443.554688 232.617188 449.707031 232.617188 L 471.09375 232.617188 C 477.246094 232.617188 482.078125 237.453125 482.078125 243.605469 L 482.078125 280.371094 C 482.078125 286.523438 477.246094 291.359375 471.09375 291.359375 L 449.707031 291.359375 C 443.554688 291.359375 438.71875 286.523438 438.71875 280.371094 Z M 383.054688 208.007812 C 383.054688 201.855469 387.890625 197.023438 394.042969 197.023438 L 415.429688 197.023438 C 421.582031 197.023438 426.414062 201.855469 426.414062 208.007812 L 426.414062 280.371094 C 426.414062 286.523438 421.582031 291.355469 415.429688 291.355469 L 394.042969 291.355469 C 387.890625 291.355469 383.054688 286.523438 383.054688 280.371094 Z M 327.246094 208.007812 C 327.246094 201.855469 332.078125 197.023438 338.230469 197.023438 L 359.617188 197.023438 C 365.769531 197.023438 370.605469 201.855469 370.605469 208.007812 L 370.605469 280.371094 C 370.605469 286.523438 365.769531 291.355469 359.617188 291.355469 L 338.230469 291.355469 C 332.078125 291.355469 327.246094 286.523438 327.246094 280.371094 Z M 271.433594 208.007812 C 271.433594 201.855469 276.269531 197.023438 282.421875 197.023438 L 303.808594 197.023438 C 309.960938 197.023438 314.796875 201.855469 314.796875 208.007812 L 314.796875 280.371094 C 314.796875 286.523438 309.816406 291.355469 303.808594 291.355469 L 282.421875 291.355469 C 276.269531 291.355469 271.433594 286.523438 271.433594 280.371094 Z M 215.769531 280.371094 L 215.769531 208.007812 C 215.769531 201.855469 220.605469 197.023438 226.757812 197.023438 L 247.996094 197.023438 C 254.148438 197.023438 258.984375 201.855469 258.984375 208.007812 L 258.984375 280.371094 C 258.984375 286.523438 254.003906 291.355469 247.996094 291.355469 L 226.757812 291.355469 C 220.605469 291.355469 215.769531 286.523438 215.769531 280.371094 Z M 511.230469 517.96875 L 511.230469 523.242188 C 511.230469 539.648438 497.898438 552.976562 481.492188 552.976562 L 268.503906 552.976562 C 252.101562 552.976562 238.769531 539.648438 238.769531 523.242188 L 238.769531 380.273438 C 238.769531 363.867188 252.101562 350.539062 268.503906 350.539062 L 481.492188 350.539062 C 497.902344 350.539062 511.230469 363.867188 511.230469 380.273438 L 511.230469 517.527344 C 511.230469 517.675781 511.230469 517.675781 511.230469 517.675781 Z M 511.230469 517.96875 " fill-opacity="1" fill-rule="nonzero"/><path fill="#fffffe" d="M 248.875 208.007812 L 248.875 280.371094 C 248.875 280.8125 248.4375 281.101562 248.144531 281.101562 L 226.757812 281.101562 C 226.316406 281.101562 226.023438 280.664062 226.023438 280.371094 L 226.023438 208.007812 C 226.023438 207.570312 226.464844 207.277344 226.757812 207.277344 L 247.996094 207.277344 C 248.4375 207.128906 248.875 207.570312 248.875 208.007812 Z M 248.875 208.007812 " fill-opacity="1" fill-rule="nonzero"/><path fill="#fffffe" d="M 304.6875 208.007812 L 304.6875 280.371094 C 304.6875 280.8125 304.246094 281.101562 303.953125 281.101562 L 282.566406 281.101562 C 282.128906 281.101562 281.835938 280.664062 281.835938 280.371094 L 281.835938 208.007812 C 281.835938 207.570312 282.273438 207.277344 282.566406 207.277344 L 303.953125 207.277344 C 304.246094 207.128906 304.6875 207.570312 304.6875 208.007812 Z M 304.6875 208.007812 " fill-opacity="1" fill-rule="nonzero"/><path fill="#fffffe" d="M 360.351562 208.007812 L 360.351562 280.371094 C 360.351562 280.8125 359.910156 281.101562 359.617188 281.101562 L 338.230469 281.101562 C 337.792969 281.101562 337.5 280.664062 337.5 280.371094 L 337.5 208.007812 C 337.5 207.570312 337.9375 207.277344 338.230469 207.277344 L 359.617188 207.277344 C 360.058594 207.128906 360.351562 207.570312 360.351562 208.007812 Z M 360.351562 208.007812 " fill-opacity="1" fill-rule="nonzero"/><path fill="#fffffe" d="M 416.160156 208.007812 L 416.160156 280.371094 C 416.160156 280.8125 415.722656 281.101562 415.429688 281.101562 L 394.042969 281.101562 C 393.601562 281.101562 393.308594 280.664062 393.308594 280.371094 L 393.308594 208.007812 C 393.308594 207.570312 393.75 207.277344 394.042969 207.277344 L 415.429688 207.277344 C 415.867188 207.128906 416.160156 207.570312 416.160156 208.007812 Z M 416.160156 208.007812 " fill-opacity="1" fill-rule="nonzero"/><path fill="#fffffe" d="M 471.972656 243.605469 L 471.972656 280.371094 C 471.972656 280.8125 471.535156 281.105469 471.238281 281.105469 L 449.707031 281.105469 C 449.265625 281.105469 448.972656 280.664062 448.972656 280.371094 L 448.972656 243.605469 C 448.972656 243.164062 449.414062 242.871094 449.707031 242.871094 L 471.09375 242.871094 C 471.53125 242.871094 471.972656 243.164062 471.972656 243.605469 Z M 471.972656 243.605469 " fill-opacity="1" fill-rule="nonzero"/><path fill="#fffffe" d="M 453.953125 512.84375 L 500.976562 512.84375 L 500.976562 380.273438 C 500.976562 369.433594 492.1875 360.792969 481.492188 360.792969 L 268.503906 360.792969 C 257.667969 360.792969 249.023438 369.582031 249.023438 380.273438 L 249.023438 380.710938 L 296.191406 380.710938 C 298.972656 380.710938 301.316406 383.054688 301.316406 385.839844 C 301.316406 388.621094 298.972656 390.964844 296.191406 390.964844 L 249.023438 390.964844 L 249.023438 523.386719 C 249.023438 534.226562 257.8125 542.871094 268.503906 542.871094 L 481.492188 542.871094 C 492.332031 542.871094 500.976562 534.082031 500.976562 523.386719 L 500.976562 522.949219 L 453.808594 522.949219 C 451.023438 522.949219 448.679688 520.605469 448.679688 517.820312 C 448.828125 515.039062 451.171875 512.84375 453.953125 512.84375 Z M 391.84375 417.042969 L 344.675781 417.042969 L 344.675781 491.601562 C 344.675781 494.382812 342.332031 496.730469 339.550781 496.730469 C 336.765625 496.730469 334.421875 494.382812 334.421875 491.601562 L 334.421875 417.042969 L 287.257812 417.042969 C 284.472656 417.042969 282.128906 414.699219 282.128906 411.914062 C 282.128906 409.132812 284.472656 406.789062 287.257812 406.789062 L 391.699219 406.789062 C 394.484375 406.789062 396.828125 409.132812 396.828125 411.914062 C 396.828125 414.699219 394.628906 417.042969 391.84375 417.042969 Z M 438.71875 499.804688 L 414.84375 499.804688 C 413.964844 499.804688 413.085938 499.660156 412.5 499.21875 C 412.207031 499.074219 411.914062 498.925781 411.765625 498.632812 C 411.328125 498.339844 411.035156 497.902344 410.597656 497.460938 C 410.449219 497.023438 410.15625 496.730469 410.011719 496.144531 C 409.863281 495.703125 409.863281 495.265625 409.863281 494.679688 L 409.863281 408.839844 C 409.863281 408.398438 410.011719 407.8125 410.011719 407.375 C 410.15625 406.933594 410.304688 406.496094 410.597656 406.054688 C 410.742188 405.761719 411.035156 405.46875 411.328125 405.175781 C 411.476562 405.03125 411.621094 404.882812 411.765625 404.738281 C 411.914062 404.589844 412.207031 404.296875 412.5 404.152344 C 413.230469 403.710938 413.964844 403.566406 414.84375 403.566406 L 438.71875 403.566406 C 454.6875 403.566406 467.722656 415.136719 467.722656 429.347656 L 467.722656 430.8125 C 467.722656 439.308594 463.183594 446.777344 456.003906 451.464844 C 463.035156 456.152344 467.722656 463.625 467.722656 472.121094 L 467.722656 473.585938 C 467.722656 488.230469 454.6875 499.804688 438.71875 499.804688 Z M 438.71875 499.804688 " fill-opacity="1" fill-rule="nonzero"/><path fill="#fffffe" d="M 457.46875 472.558594 L 457.46875 474.023438 C 457.46875 482.664062 449.121094 489.550781 438.71875 489.550781 L 419.96875 489.550781 L 419.96875 456.886719 L 439.011719 456.886719 C 449.265625 457.03125 457.46875 464.0625 457.46875 472.558594 Z M 457.46875 472.558594 " fill-opacity="1" fill-rule="nonzero"/><path fill="#fffffe" d="M 457.46875 429.636719 L 457.46875 431.101562 C 457.46875 439.597656 449.121094 446.628906 438.867188 446.628906 L 419.824219 446.628906 L 419.824219 413.964844 L 438.574219 413.964844 C 449.121094 413.964844 457.46875 420.996094 457.46875 429.636719 Z M 457.46875 429.636719 " fill-opacity="1" fill-rule="nonzero"/></svg>