<svg height="88px" width="88px" version="1.1" id="Capa_1" xmlns="http://www.w3.org/2000/svg" xmlns:xlink="http://www.w3.org/1999/xlink" viewBox="-140.72 -140.72 537.30 537.30" xml:space="preserve" fill="#0830fd" stroke="#0830fd" transform="matrix(-1, 0, 0, 1, 0, 0)rotate(0)" stroke-width="7.419824"><g id="SVGRepo_bgCarrier" stroke-width="0" transform="translate(127.928,127.928), scale(0)"><path transform="translate(-140.72, -140.72), scale(33.58125)" fill="#7ed0ec" d="M9.166.33a2.25 2.25 0 00-2.332 0l-5.25 3.182A2.25 2.25 0 00.5 5.436v5.128a2.25 2.25 0 001.084 1.924l5.25 3.182a2.25 2.25 0 002.332 0l5.25-3.182a2.25 2.25 0 001.084-1.924V5.436a2.25 2.25 0 00-1.084-1.924L9.166.33z" strokewidth="0"></path></g><g id="SVGRepo_tracerCarrier" stroke-linecap="round" stroke-linejoin="round" stroke="#CCCCCC" stroke-width="9.722528"> <g> <path style="fill:#0830fa;" d="M127.928,38.8c-30.75,0-55.768,25.017-55.768,55.767s25.018,55.767,55.768,55.767 s55.768-25.017,55.768-55.767S158.678,38.8,127.928,38.8z M127.928,135.333c-22.479,0-40.768-18.288-40.768-40.767 S105.449,53.8,127.928,53.8s40.768,18.288,40.768,40.767S150.408,135.333,127.928,135.333z"></path> <path style="fill:#0830fa;" d="M127.928,0C75.784,0,33.362,42.422,33.362,94.566c0,30.072,25.22,74.875,40.253,98.904 c9.891,15.809,20.52,30.855,29.928,42.365c15.101,18.474,20.506,20.02,24.386,20.02c3.938,0,9.041-1.547,24.095-20.031 c9.429-11.579,20.063-26.616,29.944-42.342c15.136-24.088,40.527-68.971,40.527-98.917C222.495,42.422,180.073,0,127.928,0z M171.569,181.803c-19.396,31.483-37.203,52.757-43.73,58.188c-6.561-5.264-24.079-26.032-43.746-58.089 c-22.707-37.015-35.73-68.848-35.73-87.336C48.362,50.693,84.055,15,127.928,15c43.873,0,79.566,35.693,79.566,79.566 C207.495,112.948,194.4,144.744,171.569,181.803z"></path> </g> </g><g id="SVGRepo_iconCarrier"> <g> <path style="fill:#0830fa;" d="M127.928,38.8c-30.75,0-55.768,25.017-55.768,55.767s25.018,55.767,55.768,55.767 s55.768-25.017,55.768-55.767S158.678,38.8,127.928,38.8z M127.928,135.333c-22.479,0-40.768-18.288-40.768-40.767 S105.449,53.8,127.928,53.8s40.768,18.288,40.768,40.767S150.408,135.333,127.928,135.333z"></path> <path style="fill:#0830fa;" d="M127.928,0C75.784,0,33.362,42.422,33.362,94.566c0,30.072,25.22,74.875,40.253,98.904 c9.891,15.809,20.52,30.855,29.928,42.365c15.101,18.474,20.506,20.02,24.386,20.02c3.938,0,9.041-1.547,24.095-20.031 c9.429-11.579,20.063-26.616,29.944-42.342c15.136-24.088,40.527-68.971,40.527-98.917C222.495,42.422,180.073,0,127.928,0z M171.569,181.803c-19.396,31.483-37.203,52.757-43.73,58.188c-6.561-5.264-24.079-26.032-43.746-58.089 c-22.707-37.015-35.73-68.848-35.73-87.336C48.362,50.693,84.055,15,127.928,15c43.873,0,79.566,35.693,79.566,79.566 C207.495,112.948,194.4,144.744,171.569,181.803z"></path> </g> </g></svg>
